<svg xmlns="http://www.w3.org/2000/svg" viewBox="0 0 1600 1000" fill="none">
  <style>
    .constellation-signals path { stroke: #a5f3fc; stroke-opacity: .7; stroke-width: 2.2; stroke-dasharray: 2 190; animation: signal-flow 18s linear infinite; }
    .pulse-stars circle { transform-box: fill-box; transform-origin: center; animation: star-pulse 4s ease-in-out infinite; }
    .pulse-stars circle:nth-child(2n) { animation-delay: -2s; }
    @keyframes signal-flow { to { stroke-dashoffset: -384; } }
    @keyframes star-pulse { 0%, 100% { opacity: .55; transform: scale(.82); } 50% { opacity: 1; transform: scale(1.35); } }
    @media (prefers-reduced-motion: reduce) { * { animation: none !important; } }
  </style>
  <g stroke="#7dd3fc" stroke-opacity=".38" stroke-width="1.3">
    <path d="m115 195 93-78 75 44 79-93 73 53 91-16 62 77-51 78-98-5-65 65-95-27-78 45-86-39-62-104Z"/>
    <path d="m598 320 76-62 73 24 39-92 86 43 62-35 52 77-43 83-101 5-61 69-75-47-72 10-36-75Z"/>
    <path d="m1030 173 68-60 77 30 54-65 66 45 73-5 61 66-33 72-88 23-56 59-91-31-79 18-52-70Z"/>
    <path d="m240 635 77-72 73 33 58-84 88 38 44 78-57 64-94-11-57 67-85-42-73 13-39-84Z"/>
    <path d="m840 675 70-89 93 22 49-75 75 46 79-28 67 74-49 76-90 6-61 68-81-45-72 22-80-77Z"/>
    <path d="m1290 520 52-48 59 19 35-59 60 34 49-9 34 52-26 53-62 9-46 47-56-32-50 12-49-78Z"/>
  </g>
  <g class="constellation-signals" fill="none">
    <path d="m115 195 93-78 75 44 79-93 73 53 91-16 62 77-51 78-98-5-65 65-95-27-78 45-86-39-62-104Z"/>
    <path d="m598 320 76-62 73 24 39-92 86 43 62-35 52 77-43 83-101 5-61 69-75-47-72 10-36-75Z"/>
    <path d="m1030 173 68-60 77 30 54-65 66 45 73-5 61 66-33 72-88 23-56 59-91-31-79 18-52-70Z"/>
    <path d="m240 635 77-72 73 33 58-84 88 38 44 78-57 64-94-11-57 67-85-42-73 13-39-84Z"/>
    <path d="m840 675 70-89 93 22 49-75 75 46 79-28 67 74-49 76-90 6-61 68-81-45-72 22-80-77Z"/>
    <path d="m1290 520 52-48 59 19 35-59 60 34 49-9 34 52-26 53-62 9-46 47-56-32-50 12-49-78Z"/>
  </g>
  <g fill="#bae6fd">
    <circle cx="115" cy="195" r="3"/><circle cx="208" cy="117" r="2.4"/><circle cx="283" cy="161" r="3.3"/><circle cx="362" cy="68" r="2.5"/><circle cx="435" cy="121" r="3"/><circle cx="526" cy="105" r="2.3"/><circle cx="588" cy="182" r="3.1"/><circle cx="537" cy="260" r="2.6"/><circle cx="439" cy="255" r="3.4"/><circle cx="374" cy="320" r="2.5"/><circle cx="279" cy="293" r="3.2"/><circle cx="201" cy="338" r="2.2"/><circle cx="115" cy="195" r="2.8"/>
    <circle cx="598" cy="320" r="2.8"/><circle cx="674" cy="258" r="2.4"/><circle cx="747" cy="282" r="3.1"/><circle cx="786" cy="190" r="2.5"/><circle cx="872" cy="233" r="3.4"/><circle cx="934" cy="198" r="2.2"/><circle cx="986" cy="275" r="3.1"/><circle cx="943" cy="358" r="2.5"/><circle cx="842" cy="363" r="3.3"/><circle cx="781" cy="432" r="2.4"/><circle cx="706" cy="385" r="3"/><circle cx="634" cy="395" r="2.3"/>
    <circle cx="1030" cy="173" r="3"/><circle cx="1098" cy="113" r="2.4"/><circle cx="1175" cy="143" r="3.4"/><circle cx="1229" cy="78" r="2.5"/><circle cx="1295" cy="123" r="3.1"/><circle cx="1368" cy="118" r="2.2"/><circle cx="1429" cy="184" r="3.2"/><circle cx="1396" cy="256" r="2.4"/><circle cx="1308" cy="279" r="3.2"/><circle cx="1252" cy="338" r="2.6"/><circle cx="1161" cy="307" r="3.3"/><circle cx="1082" cy="325" r="2.3"/>
    <circle cx="240" cy="635" r="3"/><circle cx="317" cy="563" r="2.4"/><circle cx="390" cy="596" r="3.3"/><circle cx="448" cy="512" r="2.5"/><circle cx="536" cy="550" r="3.1"/><circle cx="580" cy="628" r="2.3"/><circle cx="523" cy="692" r="3.2"/><circle cx="429" cy="681" r="2.5"/><circle cx="372" cy="748" r="3.3"/><circle cx="287" cy="706" r="2.4"/><circle cx="214" cy="719" r="3.1"/>
    <circle cx="840" cy="675" r="3"/><circle cx="910" cy="586" r="2.4"/><circle cx="1003" cy="608" r="3.3"/><circle cx="1052" cy="533" r="2.5"/><circle cx="1127" cy="579" r="3.1"/><circle cx="1206" cy="551" r="2.3"/><circle cx="1273" cy="625" r="3.2"/><circle cx="1224" cy="701" r="2.5"/><circle cx="1134" cy="707" r="3.3"/><circle cx="1073" cy="775" r="2.4"/><circle cx="992" cy="730" r="3.1"/><circle cx="920" cy="752" r="2.3"/>
    <circle cx="1290" cy="520" r="2.8"/><circle cx="1342" cy="472" r="2.3"/><circle cx="1401" cy="491" r="3.2"/><circle cx="1436" cy="432" r="2.4"/><circle cx="1496" cy="466" r="3.1"/><circle cx="1545" cy="457" r="2.2"/><circle cx="1579" cy="509" r="3"/><circle cx="1553" cy="562" r="2.4"/><circle cx="1491" cy="571" r="3.2"/><circle cx="1445" cy="618" r="2.5"/><circle cx="1389" cy="586" r="3"/><circle cx="1339" cy="598" r="2.3"/>
  </g>
  <g class="pulse-stars" fill="#67e8f9" fill-opacity=".75">
    <circle cx="362" cy="68" r="5"/><circle cx="786" cy="190" r="4.5"/><circle cx="1229" cy="78" r="5"/><circle cx="448" cy="512" r="4.5"/><circle cx="1052" cy="533" r="5"/><circle cx="1436" cy="432" r="4.5"/>
  </g>
</svg>